<svg xmlns="http://www.w3.org/2000/svg" width="146" height="175" viewBox="0 0 146 175">
  <metadata><?xpacket begin="﻿" id="W5M0MpCehiHzreSzNTczkc9d"?>
<x:xmpmeta xmlns:x="adobe:ns:meta/" x:xmptk="Adobe XMP Core 5.6-c142 79.160924, 2017/07/13-01:06:39        ">
   <rdf:RDF xmlns:rdf="http://www.w3.org/1999/02/22-rdf-syntax-ns#">
      <rdf:Description rdf:about=""/>
   </rdf:RDF>
</x:xmpmeta>
                                                                                                    
                                                                                                    
                                                                                                    
                                                                                                    
                                                                                                    
                                                                                                    
                                                                                                    
                                                                                                    
                                                                                                    
                                                                                                    
                                                                                                    
                                                                                                    
                                                                                                    
                                                                                                    
                                                                                                    
                                                                                                    
                                                                                                    
                                                                                                    
                                                                                                    
                                                                                                    
                           
<?xpacket end="w"?></metadata>
<defs>
    <style>
      .cls-1 {
        fill-rule: evenodd;
      }
    </style>
  </defs>
  <path id="Forma_1" data-name="Forma 1" class="cls-1" d="M99,70S88.441,49.388,62,53C38.807,59.454,33.471,77.589,34,89c2.042,11.305,6.978,30.089,33,32,17.2,1.693,26.927-10.095,32-17,5.983,3.813,25.821,15.211,29,17-0.628,5.173-23.186,33.7-52,35-28.654.071-53.729-6.9-71-43-15.658-38.319,9.781-67.771,15-73,3.745-3.288,11.5-14.946,42-21a70.126,70.126,0,0,1,66,33C119.823,57.531,99,70,99,70Z"/>
  <path id="Forma_3" data-name="Forma 3" class="cls-1" d="M107,97V92h10V82H107V77h10V68h5v9h10V68h5v9h9v5h-9V92h9v5h-9v9h-5V97H122v9h-5V97H107Zm15-15h10V92H122V82Z"/>
</svg>
