<svg xmlns="http://www.w3.org/2000/svg" width="243" height="333" viewBox="0 0 243 333">
  <metadata><?xpacket begin="﻿" id="W5M0MpCehiHzreSzNTczkc9d"?>
<x:xmpmeta xmlns:x="adobe:ns:meta/" x:xmptk="Adobe XMP Core 5.6-c142 79.160924, 2017/07/13-01:06:39        ">
   <rdf:RDF xmlns:rdf="http://www.w3.org/1999/02/22-rdf-syntax-ns#">
      <rdf:Description rdf:about=""/>
   </rdf:RDF>
</x:xmpmeta>
                                                                                                    
                                                                                                    
                                                                                                    
                                                                                                    
                                                                                                    
                                                                                                    
                                                                                                    
                                                                                                    
                                                                                                    
                                                                                                    
                                                                                                    
                                                                                                    
                                                                                                    
                                                                                                    
                                                                                                    
                                                                                                    
                                                                                                    
                                                                                                    
                                                                                                    
                                                                                                    
                           
<?xpacket end="w"?></metadata>
<defs>
    <style>
      .cls-1 {
        fill-rule: evenodd;
      }
    </style>
  </defs>
  <path id="Forma_11" data-name="Forma 11" class="cls-1" d="M100,207c-38.993-4.64-59-19-59-19s3.711,0.925,12,1c5.2-.484,18.049-3.1,19-24-1.868-19.848-17.887-23.683-31-21,54.873-32.419,121.27-15.978,133-4-4.508-10.108-52.286-36.645-113-24C2.82,128.149-3.864,161.3,1,176c3,6.729,12.031,34.2,77,43,67.023,4.267,96-25,96-25S148.207,208.858,100,207ZM33,166s2.523-18,16-18,16,13.5,16,17,0.538,18.277-15,19C36.519,184.221,33.361,171.648,33,166Zm42,33V160h5v3s5.131-4,9-4,14,1.487,14,15-6.672,15-14,15-9-6.38-9-4v14H75Zm51-20h5s-0.414,10-12,10-14-9.245-14-15,3.991-15,13-15,14,7.7,14,17H110s0.191,8,9,8S126,179,126,179Zm9,9V160h4v4a12.8,12.8,0,0,1,10-5c6.535,0,9,4.089,9,7v22h-4V167s-6.208-6.792-14,1v20h-5Zm51-16v-8h19v25h-7v-5s-6.61,6-13,6-22-4.521-22-25,17.482-22,22-22,19,4.122,19,15H194s-0.792-7-9-7-12,6.488-12,16,6.513,14,12,14,11-3.818,11-9H186Zm25-28v45h32v-9H221V144H211ZM110,172s0.041-8,8-8,9,6.2,9,8H110Zm-30,2s0.367-11,9-11,9,6.736,9,11-1.4,11-9,11C84.116,185,80,180.615,80,174Z"/>
</svg>
