<svg xmlns="http://www.w3.org/2000/svg" width="384" height="384" viewBox="0 0 384 384">
  <metadata><?xpacket begin="﻿" id="W5M0MpCehiHzreSzNTczkc9d"?>
<x:xmpmeta xmlns:x="adobe:ns:meta/" x:xmptk="Adobe XMP Core 5.6-c142 79.160924, 2017/07/13-01:06:39        ">
   <rdf:RDF xmlns:rdf="http://www.w3.org/1999/02/22-rdf-syntax-ns#">
      <rdf:Description rdf:about=""/>
   </rdf:RDF>
</x:xmpmeta>
                                                                                                    
                                                                                                    
                                                                                                    
                                                                                                    
                                                                                                    
                                                                                                    
                                                                                                    
                                                                                                    
                                                                                                    
                                                                                                    
                                                                                                    
                                                                                                    
                                                                                                    
                                                                                                    
                                                                                                    
                                                                                                    
                                                                                                    
                                                                                                    
                                                                                                    
                                                                                                    
                           
<?xpacket end="w"?></metadata>
<defs>
    <style>
      .cls-1 {
        fill-rule: evenodd;
      }
    </style>
  </defs>
  <path id="Forma_1" data-name="Forma 1" class="cls-1" d="M192,0C298.039,0,384,85.961,384,192S298.039,384,192,384,0,298.039,0,192,85.961,0,192,0ZM69,192c0.1-5.38-.536-106.138,105-121-4.747,5.983-22.77,9.3-25,38-1.343,9.874,2.414,22.5,15,15,0.367,7.469.062,114.208,0,122,4.83,6.572,15.6,22.66,46-3-0.074-22.968,0-94.2,0-104-4.156-9.449-10.655-18.447-14-20,13.978-3.7,21.969,4.283,24,5,4.062-7.885,41.223-40.141,75-42-13.782,8.962-34.877,42.043-36,62,0.082,8.857.742,79.346,1,101,1.153,1.492,6.951,4.559,11,4,13-1.037,28.951-17.675,40-28-5.181,32.554-34.9,67.374-68,83-10.4-11.193-16.622-19.678-20-23-6.358,9.056-28.926,28.686-33,34-23.33-1.333-66.894-6.747-96-50a49.1,49.1,0,0,0,16,1s3.784-1.883,5-5c0.375-10.274,0-99,0-99s-2.661-14.184-19-10C82.451,155.387,71.59,190.306,69,192Z"/>
</svg>
